# xmcd
#
# Track frame offsets:
#	332
#	14035
#	25932
#	40227
#	52260
#	64135
#	74822
#	84500
#	94245
#	105137
#	117867
#	131457
#	143095
#	157340
#	169997
#	182637
#	196895
#	207417
#	219047
#	234020
#	246055
#	259012
#	270475
#	283835
#	300727
#
# Disc length: 4166 seconds
#
# Revision: 0
# Processed by: cddbd v1.5.1PL0 Copyright (c) Steve Scherf et al.
# Submitted via: audiograbber 1.83.01
#
DISCID=6f104219
DTITLE=Various Artist - The Swingtime Records Story [CD2]
DYEAR=1950
DGENRE=R&B
TTITLE0=Percy Mayfield with the Monroe Tucker Band - Two Years Of Torture
TTITLE1=Percy Mayfield - Baby You're Still A Square
TTITLE2=Ray Charles - Someday
TTITLE3=Ray Charles - I'll Do Anything But Work
TTITLE4=Clifford "Fat Man" Blivens with the Johnny Otis Band - Korea Blues
TTITLE5=Lloyd Glenn's Combo - Chica Boo
TTITLE6=Lloyd Glenn with Th'Fulson Unit - Old Time Shuffle Blues
TTITLE7=Lowell Fulson - Sinner's Prayer
TTITLE8=Jessie Thomas with LLoyd Glenn - I Can't Stay Here
TTITLE9=Ray Charles - Lonely Boy
TTITLE10=Jimmy McCracklin - Rockin' Man
TTITLE11=Lowell Fulson - I'm A Night Owl, Pt. 1
TTITLE12=Ray Charles - Kissa Me Baby
TTITLE13=Ray Charles - The Snow Is Falling
TTITLE14=Lowell Fulson - Let Me Ride In Your Little Automobile
TTITLE15=Joe Pullum with LLoyd Glenn - My Woman
TTITLE16=Jimmy McCracklin - Blues For The People
TTITLE17=Lowell Fulson - I Love My Baby
TTITLE18=Ray Charles - I'm Wondering And Wondering
TTITLE19=Lloyd Glenn - It Moves Me
TTITLE20=Earl Brown with the Red Callandar Combo - Lovin' A Married Woman
TTITLE21=Ray Charles - Guitar Blues
TTITLE22=The Three Muskateers - Love Me Til Your Dying Day
TTITLE23=Playboy Thomas - End Of The Road Baby
TTITLE24=The Hollywood Flames - I Know
EXTD=
EXTT0=
EXTT1=
EXTT2=
EXTT3=
EXTT4=
EXTT5=
EXTT6=
EXTT7=
EXTT8=
EXTT9=
EXTT10=
EXTT11=
EXTT12=
EXTT13=
EXTT14=
EXTT15=
EXTT16=
EXTT17=
EXTT18=
EXTT19=
EXTT20=
EXTT21=
EXTT22=
EXTT23=
EXTT24=
PLAYORDER=
